<svg id="filled_outline" height="512" viewBox="0 0 512 512" width="512" xmlns="http://www.w3.org/2000/svg" data-name="filled outline"><g fill="#ffa100"><path d="m336 328h56v112h-56z"/><path d="m392 208 48 24 16-24-48-32z"/><path d="m376 208h32v48h-32z"/></g><path d="m416 208-16 16-40-8-104-104-8-32-32-32 24-24 32 32 32 8 104 104z" fill="#ffc431"/><path d="m280 168h-24a48 48 0 0 0 -48 48v88h56v-88h16z" fill="#ffc431"/><path d="m176 296h160v192h-160z" fill="#bbedf2"/><path d="m176 368h160v120h-160z" fill="#7dafff"/><path d="m200 488h-176l56-128v-256h64v256z" fill="#bbedf2"/><path d="m200 488h-176l38.5-88h99z" fill="#548aff"/><rect fill="#cdf4f7" height="32" rx="16" width="96" x="64" y="72"/><path d="m232 296 12.42229 24.84459a12.94427 12.94427 0 0 0 11.57771 7.15541 12.94427 12.94427 0 0 0 11.5777-7.15541l12.4223-24.84459z" fill="#8be0e8"/><path d="m336 318 120-30 8 32-128 32z" fill="#ffd873"/><path d="m336 440h120v48h-120z" fill="#ffc431"/><path d="m416 360h72v24h-72z" fill="#ffd873"/><circle cx="288" cy="168" fill="#ffd873" r="32"/><circle cx="280" cy="216" fill="#ffd873" r="16"/><path d="m304 64-48 48-8-32-32-32 24-24 32 32z" fill="#ffb401"/><path d="m416 208-16 16-40-8 48-48z" fill="#ffd873"/><path d="m432 440 40-56h-32l-16 24h-32v32z" fill="#ffb401"/><path d="m152 358.32617v-247.70239a23.99787 23.99787 0 0 0 -8-46.62378h-64a23.99787 23.99787 0 0 0 -8 46.62378v247.70239l-55.3291 126.46783a7.99946 7.99946 0 0 0 7.3291 11.206h176a7.99946 7.99946 0 0 0 7.3291-11.20605zm-64 1.67383v-248h48v16h-32v16h32v16h-16v16h16v16h-16v16h16v16h-32v16h32v16h-16v16h16v16h-16v16h16v16h-32v16h32v24a7.99681 7.99681 0 0 0 .6709 3.20605l12.59717 28.79395h-74.53614l12.59717-28.79395a7.99681 7.99681 0 0 0 .6709-3.20605zm-8-280h64a8 8 0 0 1 0 16h-64a8 8 0 0 1 0-16zm-43.76758 400 31.49951-72h88.53614l31.49951 72z"/><path d="m72 416h16v16h-16z"/><path d="m96 440h16v16h-16z"/><path d="m128 424h16v16h-16z"/><path d="m56 456h16v16h-16z"/><path d="m144 448h16v16h-16z"/><path d="m200 408h16v16h-16z"/><path d="m232 392h16v16h-16z"/><path d="m248 416h16v16h-16z"/><path d="m336 288h-160a8.00039 8.00039 0 0 0 -8 8v72h16v-64h43.05615l10.21143 20.42383a20.94438 20.94438 0 0 0 37.46582-.002l10.21045-20.42183h43.05615v56h-120v16h120v104h-104v16h112a8.00039 8.00039 0 0 0 8-8v-192a8.00039 8.00039 0 0 0 -8-8zm-75.57617 29.26562a4.94575 4.94575 0 0 1 -8.84668.002l-6.63355-13.26762h22.1128z"/><path d="m272 448h16v16h-16z"/><path d="m296 416h16v16h-16z"/><path d="m280 392h16v16h-16z"/><path d="m488 352h-72a8.00039 8.00039 0 0 0 -8 8v24a8.00039 8.00039 0 0 0 8 8h9.052l-5.33325 8h-19.71875v-55.75391l65.94043-16.48535a7.999 7.999 0 0 0 5.82031-9.70117l-8-32a7.99552 7.99552 0 0 0 -9.70117-5.82031l-96 24 3.88086 15.52148 88.23828-22.05957 4.12012 16.47754-88.23926 22.06055 3.88086 15.52148 14.05957-3.51465v83.75391h-24v16h88v32h-88v16h96a8.00039 8.00039 0 0 0 8-8v-48a8.00039 8.00039 0 0 0 -8-8h-8.45508l28.57154-40h11.88354a8.00039 8.00039 0 0 0 8-8v-24a8.00039 8.00039 0 0 0 -8-8zm-60.11646 80h-27.88354v-16h24a7.99943 7.99943 0 0 0 6.65625-3.5625l13.625-20.4375h12.17383zm52.11646-56h-56v-8h56z"/><circle cx="288" cy="168" r="8"/><path d="m368 225.75854v30.24146a8.00039 8.00039 0 0 0 8 8h32a8.00039 8.00039 0 0 0 8-8v-27.05566l20.42188 10.21093a7.99647 7.99647 0 0 0 10.23437-2.71777l16-24a7.99888 7.99888 0 0 0 -2.21875-11.09375l-43.3965-28.93091-1.19629-5.98218a8.00752 8.00752 0 0 0 -2.1875-4.08789l-104-104a8 8 0 0 0 -3.7168-2.10351l-29.85059-7.46289-30.43261-30.4336a8.003 8.003 0 0 0 -11.31446 0l-24 24a8.00122 8.00122 0 0 0 0 11.31446l30.4336 30.43261 7.46289 29.85059a8 8 0 0 0 2.10351 3.7168l16.45069 16.45068a40.09316 40.09316 0 0 0 -18.07617 26.38135 56.07152 56.07152 0 0 0 -48.71727 55.51074v56h16v-56a40.05764 40.05764 0 0 1 32.94922-39.365 40.04879 40.04879 0 0 0 13.98828 22.50757 23.919 23.919 0 0 0 -6.9375 16.85743v56h16v-33.37622a23.99527 23.99527 0 0 0 29.63037-33.01807 40.20986 40.20986 0 0 0 20.26172-16.39917l32.45068 32.45069a8.00752 8.00752 0 0 0 4.08789 2.1875zm35.08716-41.53125 4.22827 21.14283-9.94531 9.94531-21.14283-4.22827zm-3.08716 63.77271h-16v-19.0415l14.43066 2.88623a7.999 7.999 0 0 0 1.56934.15527zm44.90625-37.78125-7.64551 11.46777-15.75488-7.87793.15137-.15136a8.00388 8.00388 0 0 0 2.1875-7.22657l-2.36621-11.83032zm-217.59277-162.21875 12.68652-12.68652 26.34277 26.34375a8 8 0 0 0 3.7168 2.10351l18.292 4.57324-28.01757 28.01758-4.57324-18.292a8 8 0 0 0 -2.10351-3.7168zm52.68652 176a8 8 0 1 1 8-8 8.00917 8.00917 0 0 1 -8 8zm8-32a24 24 0 1 1 24-24 24.0275 24.0275 0 0 1 -24 24zm39.74854-19.56592a39.95814 39.95814 0 0 0 -44.18262-44.18262l-16.252-16.251 36.68657-36.68646 92.68551 92.68551-36.68649 36.68649z"/></svg>