<svg id="Layer_3" enable-background="new 0 0 64 64" height="512" viewBox="0 0 64 64" width="512" xmlns="http://www.w3.org/2000/svg"><path d="m42 54h18c1.105 0 2 .895 2 2v2h-22v-2c0-1.105.895-2 2-2z" fill="#c18e59"/><path d="m44 54v-2c0-1.105.895-2 2-2h10c1.105 0 2 .895 2 2v2" fill="#976947"/><path d="m42 58v4h18v-4" fill="#976947"/><path d="m55 46v-36h-8v-8h-38v44" fill="#4d5d7a"/><path d="m49 50v-2.751c0-2.794-.651-5.55-1.9-8.05l-.1-.199v-1c0-2.209 1.791-4 4-4 2.209 0 4 1.791 4 4v1l-.1.199c-1.25 2.499-1.9 5.255-1.9 8.05v2.751" fill="#8892a0"/><path d="m9 38.429c1.936.372 3.943.571 6 .571 16.016 0 29-11.864 29-26.5 0-3.731-.848-7.28-2.371-10.5h-32.629z" fill="#8892a0"/><path d="m3 46h14l4-4v-6h1c1.657 0 3 1.343 3 3v7h10v14c0 1.105-.895 2-2 2h-12l-4-2h-6" fill="#efbe9a"/><path d="m2 46h12v14h-12z" fill="#78b75b"/><circle cx="36" cy="28" fill="#fff" r="10"/><path d="m55 10-8-8v8z" fill="#8892a0"/><path d="m13 46h2v14h-2z"/><path d="m33 63h-12c-.155 0-.309-.036-.447-.105l-3.789-1.895h-15.764v-2h16c.155 0 .309.036.447.105l3.789 1.895h11.764c.551 0 1-.448 1-1v-1h-8v-2h9c.552 0 1 .447 1 1v2c0 1.654-1.346 3-3 3z"/><path d="m35 59h-9v-2h8v-2h-8v-2h9c.552 0 1 .447 1 1v4c0 .553-.448 1-1 1z"/><path d="m35 55h-9v-2h8v-2h-8v-2h9c.552 0 1 .447 1 1v4c0 .553-.448 1-1 1z"/><path d="m35 51h-9v-2h8v-2h-9c-.552 0-1-.447-1-1v-7c0-1.103-.897-2-2-2v5c0 .266-.105.52-.293.707l-4 4c-.187.188-.442.293-.707.293h-16v-2h15.586l3.414-3.414v-5.586c0-.553.448-1 1-1h1c2.206 0 4 1.794 4 4v6h9c.552 0 1 .447 1 1v4c0 .553-.448 1-1 1z"/><path d="m62 59h-22c-.552 0-1-.447-1-1v-2c0-1.654 1.346-3 3-3h18c1.654 0 3 1.346 3 3v2c0 .553-.448 1-1 1zm-21-2h20v-1c0-.552-.449-1-1-1h-18c-.551 0-1 .448-1 1z"/><path d="m59 54h-2v-2c0-.552-.449-1-1-1h-10c-.551 0-1 .448-1 1v2h-2v-2c0-1.654 1.346-3 3-3h10c1.654 0 3 1.346 3 3z"/><path d="m54 50h-2v-2.751c0-2.93.691-5.863 2-8.485v-.764c0-1.654-1.346-3-3-3s-3 1.346-3 3v.764c1.309 2.622 2 5.556 2 8.485v2.751h-2v-2.751c0-2.625-.621-5.254-1.795-7.603l-.1-.199c-.069-.138-.105-.292-.105-.447v-1c0-2.757 2.243-5 5-5s5 2.243 5 5v1c0 .155-.036.309-.105.447l-.1.199c-1.174 2.349-1.795 4.978-1.795 7.603z"/><path d="m60 63h-18c-.552 0-1-.447-1-1v-4h2v3h16v-3h2v4c0 .553-.448 1-1 1z"/><path d="m10 46h-2v-44c0-.553.448-1 1-1h38c.552 0 1 .447 1 1v7h7c.552 0 1 .447 1 1v22h-2v-21h-7c-.552 0-1-.447-1-1v-7h-36z"/><path d="m50 .343h2v11.314h-2z" transform="matrix(.707 -.707 .707 .707 10.695 37.82)"/><path d="m12 5h32v2h-32z"/><path d="m12 9h32v2h-32z"/><path d="m12 13h32v2h-32z"/><path d="m36 39c-6.065 0-11-4.935-11-11s4.935-11 11-11 11 4.935 11 11-4.935 11-11 11zm0-20c-4.962 0-9 4.037-9 9s4.038 9 9 9 9-4.037 9-9-4.038-9-9-9z"/><path d="m36 34c-.263 0-.518-.104-.707-.293l-4-4 1.414-1.414 2.928 2.928 3.437-8.592 1.857.742-4 10c-.125.312-.398.541-.728.608-.067.014-.134.021-.201.021z"/></svg>